# AST/ASF file generated using VICON BodyLanguage
# -----------------------------------------------
:version 1.10
:name VICON
:units
  mass 1.0
  length 0.45
  angle deg
:documentation
   .ast/.asf automatically generated from VICON data using
   VICON BodyBuilder and BodyLanguage model FoxedUp or BRILLIANT.MOD
:root
   order TX TY TZ RX RY RZ
   axis XYZ
   position 0 0 0  
   orientation 0 0 0 
:bonedata
  begin
     id 1 
     name lhipjoint
     direction 0.567149 -0.783011 0.255413 
     length 2.28399 
     axis 0 0 0  XYZ
  end
  begin
     id 2 
     name lfemur
     direction 0.34202 -0.939693 0  
     length 7.34031  
     axis 0 0 20  XYZ
    dof rx ry rz
    limits (-160.0 20.0)
           (-70.0 70.0)
           (-60.0 70.0)
  end
  begin
     id 3 
     name ltibia
     direction 0.34202 -0.939693 0   
     length 6.9833   
     axis 0 0 20   XYZ
    dof rx
    limits (-10.0 170.0)
  end
  begin
     id 4 
     name lfoot
     direction 0.136498 -0.375025 0.91691   
     length 2.33665   
     axis -90 7.62852e-016 20   XYZ
    dof rx rz
    limits (-45.0 90.0)
           (-70.0 20.0)
  end
  begin
     id 5 
     name ltoes
     direction 1.5367e-011 -4.21617e-011 1   
     length 1.15039   
     axis -90 7.62852e-016 20   XYZ
    dof rx
    limits (-90.0 20.0)
  end
  begin
     id 6 
     name rhipjoint
     direction -0.602854 -0.758518 0.247423   
     length 2.35775  
     axis 0 0 0  XYZ 
  end
  begin
     id 7 
     name rfemur
     direction -0.34202 -0.939693 0   
     length 7.43932   
     axis 0 0 -20   XYZ
    dof rx ry rz
    limits (-160.0 20.0)
           (-70.0 70.0)
           (-70.0 60.0)
  end
  begin
     id 8 
     name rtibia
     direction -0.34202 -0.939693 0   
     length 7.11893   
     axis 0 0 -20   XYZ
    dof rx
    limits (-10.0 170.0)
 end
 begin
     id 9 
     name rfoot
     direction -0.131771 -0.362037 0.922803   
     length 2.53019  
     axis -90 -7.62852e-016 -20   XYZ
    dof rx rz
    limits (-45.0 90.0)
           (-20.0 70.0)
  end
  begin
     id 10 
     name rtoes
     direction -1.53733e-011 -4.21932e-011 1   
     length 1.24596   
     axis -90 -7.62852e-016 -20   XYZ
    dof rx
    limits (-90.0 20.0)
  end
  begin
     id 11 
     name lowerback
     direction 0.0235427 0.999023 -0.0374125   
     length 2.21768   
     axis 0 0 0   XYZ
    dof rx ry rz
    limits (-20.0 45.0)
           (-30.0 30.0)
           (-30.0 30.0)
  end
  begin
     id 12 
     name upperback
     direction 0.0302156 0.996818 -0.073759   
     length 2.20352   
     axis 0 0 0   XYZ
    dof rx ry rz
    limits (-20.0 45.0)
           (-30.0 30.0)
           (-30.0 30.0)
  end
  begin
     id 13 
     name thorax
     direction 0.0187169 0.998235 -0.0563532   
     length 2.22103   
     axis 0 0 0   XYZ
    dof rx ry rz
    limits (-20.0 45.0)
           (-30.0 30.0)
           (-30.0 30.0)
  end
  begin
     id 14 
     name lowerneck
     direction -0.119528 0.987423 0.103481   
     length 1.72948   
     axis 0 0 0   XYZ
    dof rx ry rz
    limits (-20.0 45.0)
           (-30.0 30.0)
           (-30.0 30.0)
  end
  begin
     id 15 
     name upperneck
     direction 0.248049 0.963095 -0.104496   
     length 1.74979   
     axis 0 0 0   XYZ
    dof rx ry rz
    limits (-20.0 45.0)
           (-30.0 30.0)
           (-30.0 30.0)
  end
  begin
     id 16
     name head
     direction 0.0903589 0.994284 -0.056876  
     length 1.78268  
     axis 0 0 0   XYZ
    dof rx ry rz
    limits (-20.0 45.0)
           (-30.0 30.0)
           (-30.0 30.0)
  end
  begin
     id 17 
     name lclavicle
     direction 0.946008 0.242039 -0.215608  
     length 3.80783  
     axis 0 0 0   XYZ
    dof ry rz
    limits (-20.0 10.0)
           (0.0 20.0)
  end
  begin
     id 18 
     name lhumerus
     direction 1 -4.48991e-011 -2.25695e-027   
     length 4.83125   
     axis 180 -30 -90   XYZ
    dof rx ry rz
    limits (-60.0 90.0)
           (-90.0 90.0)
           (-90.0 90.0)
  end
  begin
     id 19
     name lradius
     direction 0.999991 0.00366712 -0.00211721   
     length 3.00391   
     axis 180 -30 -90   XYZ
    dof rx
    limits (-10.0 170.0)
  end
  begin
     id 20
     name lwrist
     direction 0.999991 0.00393016 -0.00141978   
     length 1.50195   
     axis -1.00488e-014 90 90   XYZ
    dof ry
    limits (-180.0 0.0)
 end
  begin
     id 21 
     name lhand
     direction 1 -4.49123e-011 2.72098e-026   
     length 1.2717   
     axis -1.73687e-014 90 90   XYZ
    dof rx rz
    limits (-90.0 90.0)
           (-45.0 45.0)
  end
  begin
     id 22 
     name lfingers
     direction 1 -4.48678e-011 5.4479e-026   
     length 1.02528   
     axis -3.47372e-014 90 90   XYZ
    dof rx
    limits (0.0 90.0)
  end
  begin
     id 23
     name lthumb
     direction 0.707107 -6.34851e-011 0.707107   
     length 1.4721   
     axis -90 45 -1.62303e-014   XYZ
    dof rx rz
    limits (-45.0 45.0)
           (-45.0 45.0)
  end
  begin
     id 24 
     name rclavicle
     direction -0.981723 0.189447 -0.0181673   
     length 3.74989  
     axis 0 0 0   XYZ 
    dof ry rz
    limits (-10.0 20.0)
           (-20.0 0.0)
  end
  begin
     id 25 
     name rhumerus
     direction -1 -4.48985e-011 2.38206e-027  
     length 4.61118   
     axis 180 30 90   XYZ
    dof rx ry rz
    limits (-90.0 60.0)
           (-90.0 90.0)
           (-90.0 90.0)
  end
  begin
     id 26 
     name rradius
     direction -1 -4.48977e-011 7.41019e-027   
     length 2.91491   
     axis 180 30 90   XYZ
    dof rx
    limits (-10.0 170.0)
  end
  begin
     id 27 
     name rwrist
     direction -1 -4.48549e-011 1.3624e-026   
     length 1.45745   
     axis -1.00488e-014 -90 -90   XYZ
    dof ry
    limits (-180.0 0.0)
  end
  begin
     id 28
     name rhand
     direction -1 -4.49107e-011 2.72109e-026   
     length 1.30769   
     axis -1.73687e-014 -90 -90   XYZ
    dof rx rz
    limits (-90.0 90.0)
           (-45.0 45.0)
  end
  begin
     id 29
     name rfingers
     direction -1 -4.48919e-011 5.44468e-026   
     length 1.05429   
     axis -3.47372e-014 -90 -90   XYZ
    dof rx
    limits (0.0 90.0)
  end
  begin
     id 30
     name rthumb
     direction -0.707107 -6.35315e-011 0.707107   
     length 1.51376   
     axis -90 -45 1.62303e-014   XYZ
    dof rx rz
    limits (-45.0 45.0)
           (-45.0 45.0)
  end
:hierarchy
  begin
    root lhipjoint rhipjoint lowerback
    lhipjoint lfemur
    lfemur ltibia
    ltibia lfoot
    lfoot ltoes
    rhipjoint rfemur
    rfemur rtibia
    rtibia rfoot
    rfoot rtoes
    lowerback upperback
    upperback thorax
    thorax lowerneck lclavicle rclavicle
    lowerneck upperneck
    upperneck head
    lclavicle lhumerus
    lhumerus lradius
    lradius lwrist
    lwrist lhand lthumb
    lhand lfingers
    rclavicle rhumerus
    rhumerus rradius
    rradius rwrist
    rwrist rhand rthumb
    rhand rfingers
  end

#!OML:ASF X:\für Bonn\!DataBase\2005_08_11_Bastian_Final\c3d\Bastian.ASF
:FULLY-SPECIFIED
:DEGREES
1
root -1.65281 17.3429 2.00453 176.391 -4.92311 -174.409
lowerback 14.2114 -1.07621 -0.328708
upperback 4.68925 -2.00843 0.850602
thorax -2.97484 -1.24423 1.41673
lowerneck -9.3204 -6.22995 -3.66183
upperneck -4.56043 -7.19155 13.1872
head 0.829064 -3.06105 4.28755
rclavicle 8.34896e-015 -1.59028e-015
rhumerus 74.0699 16.8998 13.7147
rradius 38.0245
rwrist -64.1981
rhand -47.3843 -9.24897
rfingers 7.12502
rthumb -20.0767 -38.2317
lclavicle 8.34896e-015 -1.59028e-015
lhumerus 78.9309 -17.648 -50.5047
lradius 31.7481
lwrist 38.0724
lhand -42.9191 22.4483
lfingers 7.12502
lthumb -15.7805 51.8251
rfemur -12.2675 6.99038 27.4412
rtibia 40.9078
rfoot -23.0638 -10.8991
rtoes -6.65964
lfemur -10.4471 0.934519 -14.9969
ltibia 36.3862
lfoot -16.2421 -5.11975
ltoes -6.82502
2
root -1.64759 17.3458 1.98997 176.358 -4.89948 -174.478
lowerback 13.9745 -1.04813 -0.39511
upperback 4.72237 -1.978 0.86063
thorax -2.81102 -1.22979 1.45072
lowerneck -9.36521 -6.20037 -3.61514
upperneck -4.51607 -7.15896 13.1695
head 0.843907 -3.04233 4.27466
rclavicle 4.17448e-015 1.19271e-014
rhumerus 74.0158 16.8136 13.5541
rradius 37.8698
rwrist -63.7888
rhand -46.9969 -9.53336
rfingers 7.12502
rthumb -19.7043 -38.5547
lclavicle 4.17448e-015 1.19271e-014
lhumerus 79.0201 -17.7249 -50.412
lradius 31.6676
lwrist 37.8817
lhand -42.8335 22.6489
lfingers 7.12502
lthumb -15.698 52.0321
rfemur -11.9747 7.12486 27.4255
rtibia 40.6031
rfoot -22.9317 -11.1662
rtoes -7.10137
lfemur -10.1743 1.23362 -15.0149
ltibia 36.0857
lfoot -16.1954 -5.35815
ltoes -6.9278
3
root -1.6426 17.3475 1.97656 176.29 -4.88165 -174.523
lowerback 13.7798 -1.02343 -0.40298
upperback 4.76806 -1.94756 0.854763
thorax -2.6591 -1.21628 1.43653
lowerneck -9.39767 -6.16732 -3.58227
upperneck -4.48796 -7.11479 13.2127
head 0.854636 -3.01591 4.28352
rclavicle -5.96354e-015 -1.03368e-014
rhumerus 73.9302 16.7576 13.3809
rradius 37.7426
rwrist -63.417
rhand -46.7137 -9.69532
rfingers 7.12502
rthumb -19.432 -38.7443
lclavicle -5.96354e-015 -1.03368e-014
lhumerus 79.1063 -17.7957 -50.3118
lradius 31.5839
lwrist 37.6193
lhand -42.76 22.8703
lfingers 7.12502
lthumb -15.6272 52.2591
rfemur -11.7096 7.16795 27.4256
rtibia 40.3929
rfoot -22.8559 -11.3528
rtoes -7.08312
lfemur -9.91893 1.49544 -15.0057
ltibia 35.8738
lfoot -16.1585 -5.59301
ltoes -6.95137
4
root -1.63748 17.3446 1.96549 176.213 -4.85563 -174.591
lowerback 13.6141 -0.997579 -0.444311
upperback 4.82228 -1.92184 0.864677
thorax -2.5122 -1.20641 1.45939
lowerneck -9.44358 -6.14173 -3.60882
upperneck -4.46778 -7.07687 13.2417
head 0.867262 -2.99293 4.29722
rclavicle 9.93923e-016 -3.97569e-015
rhumerus 73.907 16.6926 13.325
rradius 37.6456
rwrist -63.224
rhand -46.543 -9.739
rfingers 7.12502
rthumb -19.2679 -38.8045
lclavicle 9.93923e-016 -3.97569e-015
lhumerus 79.1505 -17.9046 -50.0177
lradius 31.4959
lwrist 37.3673
lhand -42.698 23.0412
lfingers 7.12502
lthumb -15.5675 52.4347
rfemur -11.5028 7.0488 27.3808
rtibia 40.2824
rfoot -22.8046 -11.453
rtoes -7.28478
lfemur -9.69579 1.70581 -15.0348
ltibia 35.7328
lfoot -16.1779 -5.77436
ltoes -7.14751
5
root -1.6329 17.3387 1.95748 176.116 -4.82881 -174.659
lowerback 13.5199 -0.973251 -0.451116
upperback 4.86086 -1.89384 0.851792
thorax -2.42216 -1.19444 1.44156
lowerneck -9.44235 -6.11227 -3.64225
upperneck -4.45819 -7.03029 13.3259
head 0.871481 -2.96591 4.33041
rclavicle 5.46658e-015 7.15625e-015
rhumerus 73.8679 16.698 13.2934
rradius 37.5836
rwrist -63.1012
rhand -46.4812 -9.73477
rfingers 7.12502
rthumb -19.2084 -38.8062
lclavicle 5.46658e-015 7.15625e-015
lhumerus 79.2573 -18.0361 -49.7976
lradius 31.4057
lwrist 37.1856
lhand -42.6965 23.1908
lfingers 7.12502
lthumb -15.5661 52.5844
rfemur -11.3421 6.68683 27.3095
rtibia 40.2636
rfoot -22.788 -11.3542
rtoes -7.56021
lfemur -9.49319 1.88297 -15.0651
ltibia 35.6531
lfoot -16.2076 -5.92725
ltoes -7.16347
6
root -1.62805 17.3304 1.95233 176.006 -4.80254 -174.727
lowerback 13.4711 -0.954134 -0.470379
upperback 4.89872 -1.87543 0.852973
thorax -2.35613 -1.18791 1.44845
lowerneck -9.45439 -6.08257 -3.6764
upperneck -4.43522 -6.9887 13.3549
head 0.879422 -2.94311 4.34629
rclavicle -1.27222e-014 -6.36111e-015
rhumerus 73.8794 16.7171 13.3745
rradius 37.5758
rwrist -63.1515
rhand -46.5116 -9.6554
rfingers 7.12502
rthumb -19.2377 -38.7239
lclavicle -1.27222e-014 -6.36111e-015
lhumerus 79.3015 -18.2156 -49.4304
lradius 31.3373
lwrist 36.9763
lhand -42.6844 23.2638
lfingers 7.12502
lthumb -15.5544 52.6583
rfemur -11.2309 6.2346 27.2244
rtibia 40.3169
rfoot -22.7797 -11.1471
rtoes -7.72955
lfemur -9.32018 2.08055 -15.0983
ltibia 35.6288
lfoot -16.2714 -6.07672
ltoes -7.58042
7
root -1.62237 17.3219 1.95005 175.902 -4.78621 -174.817
lowerback 13.4455 -0.929866 -0.491065
upperback 4.94214 -1.85219 0.833827
thorax -2.29766 -1.17929 1.43493
lowerneck -9.47906 -6.05641 -3.71671
upperneck -4.41928 -6.94755 13.4153
head 0.88911 -2.91834 4.37248
rclavicle 3.37934e-015 -7.95139e-016
rhumerus 73.8642 16.7628 13.4623
rradius 37.6017
rwrist -63.2937
rhand -46.6123 -9.50014
rfingers 7.12502
rthumb -19.3346 -38.559
lclavicle 3.37934e-015 -7.95139e-016
lhumerus 79.3545 -18.3684 -49.0526
lradius 31.2621
lwrist 36.802
lhand -42.6813 23.2605
lfingers 7.12502
lthumb -15.5515 52.6552
rfemur -11.1764 5.65723 27.0988
rtibia 40.4291
rfoot -22.7656 -10.8313
rtoes -7.94874
lfemur -9.18228 2.14684 -15.1681
ltibia 35.6488
lfoot -16.3486 -6.13122
ltoes -7.72052
